<?xml version="1.0" encoding="UTF-8"?>
<svg width="105px" height="136px" viewBox="0 0 105 136" version="1.1" xmlns="http://www.w3.org/2000/svg" xmlns:xlink="http://www.w3.org/1999/xlink">
    <title>Group 22</title>
    <g id="Page-1" stroke="none" stroke-width="1" fill="none" fill-rule="evenodd">
        <g id="Group-22" transform="translate(0.600000, 0.800000)" fill="#FFFFFF" fill-rule="nonzero">
            <path d="M83.2,134.4 L12.8,134.4 C5.7,134.4 0,128.6 0,121.6 L0,12.8 C0,5.7 5.8,0 12.8,0 L90.8,0 C97.9,0 103.6,5.8 103.6,12.8 L103.6,112.9 C103.6,113.5 103.4,114.2 102.9,114.6 L85,133.5 C84.6,134.1 83.9,134.4 83.2,134.4 Z M12.8,5.1 C8.5,5.1 5,8.6 5,12.9 L5,121.6 C5,125.9 8.5,129.4 12.8,129.4 L82.1,129.4 L98.6,112 L98.6,12.9 C98.6,8.6 95.1,5.1 90.8,5.1 L12.8,5.1 Z" id="Shape"></path>
            <path d="M83.2,134.4 C82.1,134.4 81,133.6 80.7,132.5 L76,113.6 C75.8,112.8 76,112 76.5,111.4 C77,110.8 77.7,110.4 78.5,110.4 L101.1,110.4 C102.5,110.4 103.6,111.5 103.6,112.9 C103.6,114.3 102.5,115.4 101.1,115.4 L81.7,115.4 L85.6,131.2 C85.9,132.6 85.1,133.9 83.8,134.3 C83.6,134.4 83.4,134.4 83.2,134.4 Z" id="Path"></path>
            <path d="M67.2,26.3 L36.4,26.3 C35,26.3 33.9,25.2 33.9,23.8 C33.9,22.4 35,21.3 36.4,21.3 L67.1,21.3 C68.5,21.3 69.6,22.4 69.6,23.8 C69.7,25.2 68.6,26.3 67.2,26.3 Z" id="Path"></path>
            <path d="M84,44.1 L19.5,44.1 C18.1,44.1 17,43 17,41.6 C17,40.2 18.1,39.1 19.5,39.1 L84,39.1 C85.4,39.1 86.5,40.2 86.5,41.6 C86.6,42.9 85.4,44.1 84,44.1 Z" id="Path"></path>
            <path d="M84,61.8 L19.5,61.8 C18.1,61.8 17,60.7 17,59.3 C17,57.9 18.1,56.8 19.5,56.8 L84,56.8 C85.4,56.8 86.5,57.9 86.5,59.3 C86.6,60.7 85.4,61.8 84,61.8 Z" id="Path"></path>
            <path d="M84,79.5 L19.5,79.5 C18.1,79.5 17,78.4 17,77 C17,75.6 18.1,74.5 19.5,74.5 L84,74.5 C85.4,74.5 86.5,75.6 86.5,77 C86.6,78.4 85.4,79.5 84,79.5 Z" id="Path"></path>
            <path d="M84,97.2 L19.5,97.2 C18.1,97.2 17,96.1 17,94.7 C17,93.3 18.1,92.2 19.5,92.2 L84,92.2 C85.4,92.2 86.5,93.3 86.5,94.7 C86.6,96.1 85.4,97.2 84,97.2 Z" id="Path"></path>
            <path d="M50.1,115 L19.5,115 C18.1,115 17,113.9 17,112.5 C17,111.1 18.1,110 19.5,110 L50.1,110 C51.5,110 52.6,111.1 52.6,112.5 C52.6,113.8 51.5,115 50.1,115 Z" id="Path"></path>
        </g>
    </g>
</svg>