<?xml version="1.0" encoding="UTF-8"?>
<svg width="1808px" height="1409px" viewBox="0 0 1808 1409" version="1.1" xmlns="http://www.w3.org/2000/svg" xmlns:xlink="http://www.w3.org/1999/xlink">
    <title>pool</title>
    <g id="Page-1" stroke="none" stroke-width="1" fill="none" fill-rule="evenodd">
        <g id="pool" transform="translate(0.073779, 0.918880)" fill-rule="nonzero">
            <g id="Group" transform="translate(398.530908, 131.294012)">
                <g transform="translate(119.120833, 59.707548)" id="Path">
                    <polygon fill="#DCDEEA" points="20.9029 30.12409 20.67164 110.84036 10.89539 116.51932 11.15436 24.50073"></polygon>
                    <polygon fill="#DCDEEA" points="130.31891 69.43247 130.02289 173.97427 120.24665 179.65317 120.54267 75.11136"></polygon>
                    <polygon fill="#F7F7FB" points="130.31891 69.43247 120.54267 75.11136 0.29603 5.68817 10.07221 -5.68434189e-14"></polygon>
                    <polygon fill="#BABAC6" points="120.54267 75.11136 120.24665 179.65317 109.36054 173.37308 109.61957 81.34525 20.9029 30.12409 11.15436 24.50073 10.89539 116.51932 0 110.22995 0.29603 5.68817"></polygon>
                </g>
                <g id="Path">
                    <path d="M87.9249135,6.97063799 C87.9158835,6.94518799 87.9067835,6.91970799 87.8975735,6.89431799 C87.8641235,6.80206799 87.8296435,6.71023799 87.7940535,6.61889799 C87.7593235,6.52975799 87.7236835,6.44106799 87.6870635,6.35284799 C87.6503835,6.26464799 87.6127835,6.17694799 87.5743335,6.08972799 C87.5584635,6.05386799 87.5418035,6.01852799 87.5256235,5.98285799 C87.5204335,5.97141799 87.5152435,5.95999799 87.5099935,5.94852799 C87.4913135,5.90753799 87.4731235,5.86628799 87.4540835,5.82560799 C87.4094035,5.73035799 87.3636335,5.63575799 87.3168135,5.54185799 C87.2629835,5.43382799 87.2077435,5.32679799 87.1511635,5.22065799 C87.1225335,5.16703799 87.0917135,5.11524799 87.0624835,5.06214799 C87.0413635,5.02381799 87.0200635,4.98594799 86.9985235,4.94782799 C86.9623335,4.88358799 86.9276635,4.81803799 86.8904335,4.75464799 C86.7835035,4.57208799 86.6691835,4.39658799 86.5548035,4.22122799 C86.5244735,4.17483799 86.4968235,4.12610799 86.4660535,4.08020799 C86.4594635,4.07037799 86.4535435,4.05978799 86.4469535,4.04996799 C86.3392835,3.89029799 86.2287535,3.73398799 86.1155935,3.58124799 C86.0407035,3.48007799 85.9645935,3.38050799 85.8875035,3.28253799 C85.8837235,3.27774799 85.8797535,3.27316799 85.8759635,3.26837799 C85.8725435,3.26410799 85.8691235,3.25998799 85.8657135,3.25567799 C85.8030935,3.17654799 85.7399235,3.09811799 85.6758935,3.02117799 C85.6063135,2.93749799 85.5359435,2.85518799 85.4648935,2.77431799 C85.3936035,2.69313799 85.3215235,2.61330799 85.2488935,2.53499799 C85.2401635,2.52556799 85.2312535,2.51671799 85.2224635,2.50734799 C85.2158735,2.50023799 85.2092235,2.49345799 85.2025635,2.48640799 C85.1433635,2.42329799 85.0840935,2.36051799 85.0241535,2.29942799 C84.9462135,2.21998799 84.8675935,2.14232799 84.7884335,2.06633799 C84.7075635,1.98872799 84.6260835,1.91295799 84.5440535,1.83907799 C84.5381335,1.83382799 84.5322135,1.82891799 84.5263535,1.82366799 C84.5206735,1.81853799 84.5149435,1.81377799 84.5092635,1.80871799 C84.4386435,1.74569799 84.3678435,1.68337799 84.2965535,1.62313799 C84.2148835,1.55428799 84.1327935,1.48720799 84.0502735,1.42211799 C83.9698335,1.35866799 83.8890235,1.29702799 83.8079035,1.23730799 C83.8052135,1.23538799 83.8025935,1.23358799 83.7999735,1.23165799 C83.7984435,1.23052799 83.7969235,1.22957799 83.7953935,1.22845799 C83.7206835,1.17361799 83.6457335,1.12011799 83.5704835,1.06857799 C83.4932135,1.01562799 83.4156935,0.964417986 83.3380035,0.915017986 C83.2627435,0.867167986 83.1873035,0.820997986 83.1118035,0.776557986 C83.0943435,0.766277986 83.0769535,0.756107986 83.0595535,0.746067986 C83.0024835,0.713167986 82.9454835,0.681247986 82.8883535,0.650337986 C82.8150535,0.610637986 82.7415635,0.572607986 82.6681435,0.536297986 C82.5953935,0.500287986 82.5225735,0.465957986 82.4497635,0.433387986 C82.4425635,0.430187986 82.4354835,0.427467986 82.4282835,0.424297986 C82.4221235,0.421577986 82.4160135,0.419167986 82.4098535,0.416457986 C82.3505235,0.390427986 82.2912035,0.364697986 82.2319335,0.340927986 C82.1589935,0.311757986 82.0861235,0.284317986 82.0133635,0.258687986 C81.9398135,0.232777986 81.8663935,0.208727986 81.7930235,0.186607986 L81.7869235,0.184897986 C81.7844835,0.184107986 81.7819835,0.183557986 81.7794135,0.182817986 C81.7092835,0.161757986 81.6390335,0.142167986 81.5690235,0.124647986 C81.4924235,0.105517986 81.4160035,0.0884879864 81.3398335,0.0736179864 C81.2847235,0.0629079864 81.2298435,0.0548179864 81.1749735,0.0463679864 C81.1644735,0.0447779864 81.1538535,0.0426779864 81.1432335,0.0411179864 C81.1298635,0.0391979864 81.1163735,0.0362679864 81.1030735,0.0344379864 C81.0201235,0.0232079864 80.9374835,0.0146979864 80.8553935,0.00892798636 C80.7669535,0.00272798636 80.6791235,0 80.5919035,0 C80.5748135,0 80.5577235,0 80.5405735,0 C80.4585435,0.00209798636 80.3779135,0.00651798636 80.2988135,0.0137779864 C80.1898035,0.0238479864 80.0837835,0.0392879864 79.9806935,0.0600079864 C79.9376035,0.0686479864 79.8982935,0.0838379864 79.8562435,0.0943379864 C79.8202935,0.103247986 79.7852635,0.113347986 79.7501035,0.123637986 C79.6997535,0.138377986 79.6466535,0.148297986 79.5978835,0.165627986 C79.4449335,0.220067986 79.2999135,0.287577986 79.1630735,0.366947986 L79.1625235,0.367157986 L1.60148345,45.440768 C1.78221345,45.335698 1.98087345,45.257908 2.18943345,45.197058 C2.22422345,45.186898 2.25919345,45.176858 2.29472345,45.168008 C2.51036345,45.114208 2.73674345,45.078588 2.97947345,45.074168 C3.17735345,45.070568 3.37864345,45.085058 3.58213345,45.114698 C3.59275345,45.116288 3.60331345,45.118328 3.61387345,45.119948 C3.81388345,45.150738 4.01603345,45.195728 4.21934345,45.256638 C4.22129345,45.257188 4.22331345,45.257708 4.22331345,45.257708 C4.43211345,45.320478 4.64024345,45.398458 4.84855345,45.489948 C4.85484345,45.492728 4.86094345,45.495078 4.86723345,45.497848 C5.07774345,45.591168 5.28849345,45.698408 5.49839345,45.819628 C5.74503345,45.962058 5.99052345,46.123338 6.23325345,46.301318 C6.23526345,46.302778 6.23734345,46.304218 6.23941345,46.305678 C6.47897345,46.481638 6.71567345,46.674758 6.94815345,46.882338 C6.95383345,46.887408 6.95962345,46.892198 6.96524345,46.897288 C7.19553345,47.103768 7.42129345,47.325478 7.64145345,47.560008 C7.64804345,47.567088 7.65476345,47.573858 7.66135345,47.580908 C7.88230345,47.817538 8.09726345,48.067448 8.30466345,48.329378 C8.30808345,48.333618 8.31143345,48.337678 8.31485345,48.341918 C8.51968345,48.601318 8.71664345,48.873018 8.90518345,49.154208 C8.93539345,49.199248 8.96274345,49.247288 8.99246345,49.292908 C9.14712345,49.529788 9.29678345,49.772008 9.43765345,50.021818 C9.45901345,50.059628 9.48025345,50.097438 9.50131345,50.135498 C9.66031345,50.424038 9.81076345,50.719328 9.94888345,51.022128 C9.95407345,51.033538 9.95932345,51.045048 9.96451345,51.056458 C10.1105735,51.379028 10.2446635,51.708588 10.3638035,52.044248 L39.6131935,134.314268 L117.174293,89.240658 L87.9249135,6.97063799 Z" fill="#DCDEEA"></path>
                    <path d="M321.307423,284.718868 C321.306693,284.690848 321.304613,284.662228 321.303513,284.634028 C321.302663,284.615108 321.301683,284.596128 321.300703,284.577148 C321.298753,284.536378 321.297653,284.496218 321.295083,284.455078 C321.289463,284.367368 321.282513,284.278808 321.273843,284.189578 C321.269083,284.138488 321.262613,284.086668 321.256753,284.035038 C321.254673,284.017518 321.253093,284.000188 321.250893,283.982608 C321.248333,283.961548 321.246503,283.940858 321.243813,283.919738 C321.232343,283.828548 321.219273,283.736758 321.204753,283.644288 C321.191693,283.561098 321.176923,283.477108 321.161293,283.392948 C321.160193,283.386908 321.159343,283.380988 321.158123,283.374938 C321.157633,283.371518 321.157023,283.368098 321.156413,283.364688 C321.138593,283.269898 321.119183,283.174628 321.098433,283.078738 C321.077433,282.982978 321.055103,282.886658 321.031173,282.789918 C321.028123,282.777838 321.024583,282.765568 321.021533,282.753478 C321.017993,282.739628 321.014213,282.725768 321.010543,282.711848 C320.992473,282.640988 320.974413,282.570128 320.954633,282.498838 C320.927903,282.402828 320.899943,282.306518 320.870283,282.209778 C320.860273,282.177368 320.849413,282.144838 320.839033,282.112368 C320.832683,282.092048 320.826093,282.071838 320.819623,282.051518 C320.806073,282.009588 320.793253,281.967658 320.779093,281.925598 C320.748213,281.833188 320.715863,281.740538 320.682293,281.647578 C320.657023,281.577688 320.630173,281.507568 320.603433,281.437438 C320.599523,281.427188 320.595863,281.417118 320.591963,281.406858 C320.588303,281.397338 320.585003,281.387938 320.581223,281.378358 C320.546673,281.289548 320.510913,281.200628 320.473803,281.111508 C320.437673,281.024528 320.400443,280.937438 320.361863,280.850278 C320.350143,280.823848 320.337693,280.797358 320.325733,280.770868 C320.317673,280.752988 320.309493,280.735158 320.301323,280.717278 C320.280813,280.672358 320.261163,280.627498 320.240043,280.582638 C320.194263,280.485168 320.147143,280.387568 320.098323,280.290038 C320.061943,280.217228 320.024963,280.144468 319.986873,280.071658 L274.973813,306.230408 L319.987243,280.068238 L264.761293,174.444338 L187.199033,219.524108 L242.424983,325.148008 L242.426693,325.147028 C242.538633,325.361808 242.642753,325.576778 242.740533,325.791258 C242.748343,325.808898 242.756523,325.826358 242.764463,325.843988 C242.860163,326.056698 242.949273,326.269098 243.030823,326.480398 C243.034733,326.490708 243.038393,326.500908 243.042423,326.511158 C243.121163,326.717028 243.193053,326.921868 243.258483,327.125358 C243.265073,327.145498 243.271543,327.165698 243.277893,327.185778 C243.341613,327.387008 243.398743,327.586838 243.449283,327.784838 C243.452943,327.798998 243.456973,327.813218 243.460633,327.827378 C243.513243,328.036728 243.558903,328.244188 243.597233,328.448778 C243.598213,328.454578 243.599063,328.460378 243.600163,328.466178 C243.637033,328.665698 243.666693,328.862418 243.689763,329.056208 C243.691963,329.073728 243.693673,329.091118 243.695623,329.108638 C243.716493,329.292418 243.731143,329.473198 243.739693,329.650748 C243.740543,329.669728 243.741643,329.688708 243.742383,329.707628 C243.749583,329.886338 243.750563,330.061568 243.745313,330.232958 C243.744823,330.246998 243.744823,330.261158 243.744463,330.275068 C243.737873,330.451888 243.724563,330.624368 243.704673,330.792218 C243.703823,330.800578 243.703083,330.809248 243.702113,330.817608 C243.681723,330.983318 243.654143,331.143718 243.620693,331.299598 C243.617883,331.312968 243.615563,331.326818 243.612513,331.340128 C243.580533,331.484778 243.540983,331.623578 243.497643,331.758828 C243.487513,331.790258 243.477253,331.821508 243.466513,331.852398 C243.421713,331.981728 243.372273,332.106918 243.316733,332.226358 C243.312213,332.236128 243.308673,332.246748 243.304033,332.256508 C243.239703,332.391948 243.168173,332.520358 243.090043,332.641758 C242.981403,332.810278 242.855423,332.959688 242.720413,333.098548 C242.687453,333.132548 242.653393,333.165318 242.618733,333.197428 C242.476153,333.329688 242.325153,333.451888 242.155843,333.550268 L319.717003,288.476658 C319.886313,288.378268 320.037313,288.256078 320.179893,288.123688 C320.214443,288.091588 320.248373,288.059048 320.281333,288.025118 C320.416463,287.886138 320.542683,287.736788 320.651203,287.568028 C320.652303,287.566318 320.653893,287.565038 320.654983,287.563328 C320.730543,287.445588 320.799513,287.321018 320.862013,287.190158 C320.863233,287.187838 320.863963,287.185218 320.865063,287.182958 C320.869703,287.173188 320.873363,287.162568 320.877883,287.152748 C320.920123,287.061748 320.960523,286.968908 320.996653,286.872168 C321.007883,286.841898 321.016913,286.809548 321.027533,286.778728 C321.038273,286.747848 321.048533,286.716718 321.058663,286.685348 C321.070263,286.648968 321.083813,286.614058 321.094673,286.577008 C321.121773,286.484358 321.146313,286.389628 321.168403,286.292768 C321.170483,286.284158 321.171823,286.275128 321.173653,286.266518 C321.176583,286.253208 321.178903,286.239478 321.181833,286.226108 C321.195873,286.160438 321.210033,286.094698 321.221753,286.027198 C321.236893,285.939858 321.250073,285.851108 321.261543,285.760958 C321.262153,285.755408 321.262523,285.749488 321.263133,285.743928 C321.264233,285.735568 321.264723,285.727018 321.265823,285.718658 C321.274363,285.646208 321.282543,285.573398 321.288533,285.499178 C321.295613,285.413788 321.300743,285.327298 321.304643,285.239778 C321.305133,285.227208 321.305133,285.214208 321.305493,285.201508 C321.305983,285.187588 321.305983,285.173428 321.306473,285.159398 C321.308183,285.099458 321.310839,285.039648 321.310839,284.978738 C321.310839,284.893008 321.310839,284.806338 321.307423,284.718868 Z" fill="#DCDEEA"></path>
                    <polygon fill="#F7F7FB" points="117.174613 89.242278 39.6122335 134.312808 187.199023 219.524108 264.761283 174.444338"></polygon>
                    <path d="M242.424973,325.148008 L187.199023,219.524108 L39.6122335,134.312808 L10.3668135,52.042668 C9.39568345,49.314178 7.48113345,46.964968 5.50182345,45.818088 C4.65093345,45.327858 3.79076345,45.059668 2.97686345,45.0772886 C0.285393452,45.124418 -0.778266548,48.315338 0.609123452,52.218388 L32.9066735,143.062378 L182.148983,229.226318 L234.100883,328.597898 C235.182913,330.669618 236.709033,332.288208 238.253713,333.176148 C239.520683,333.906798 240.797173,334.147278 241.832933,333.703368 C244.135913,332.759948 244.394943,328.921568 242.424973,325.148008 Z" fill="#BABAC6"></path>
                </g>
                <g transform="translate(42.012743, 109.189878)" id="Path">
                    <polygon fill="#DCDEEA" points="20.90283 30.12409 20.67157 110.84033 10.89539 116.51929 11.1543 24.50067"></polygon>
                    <polygon fill="#DCDEEA" points="130.31879 69.43244 130.02283 173.97424 120.24658 179.65314 120.5426 75.11133"></polygon>
                    <polygon fill="#F7F7FB" points="130.31879 69.43244 120.5426 75.11133 0.29596 5.68817 10.07221 -1.13686838e-13"></polygon>
                    <polygon fill="#BABAC6" points="120.5426 75.11133 120.24658 179.65314 109.36054 173.37305 109.61951 81.34522 20.90283 30.12409 11.1543 24.50067 10.89539 116.51929 0 110.22992 0.29596 5.68817"></polygon>
                </g>
            </g>
            <g id="Group" transform="translate(205.649551, 0.000000)">
                <path d="M190.94604,453.01117 C186.43713,453.01117 182.78222,449.35626 182.78222,444.84735 L182.78222,42.10385 C182.78222,37.59491 186.43713,33.94 190.94604,33.94 C195.45501,33.94 199.10992,37.59491 199.10992,42.10385 L199.10992,444.84735 C199.10992,449.35627 195.45501,453.01117 190.94604,453.01117 Z" id="Path" fill="#FFFFFF"></path>
                <g transform="translate(0.000000, 0.000000)" id="Path">
                    <polygon fill="#DCDEEA" points="270.03717 5.68434189e-14 190.9458 42.10373 111.85449 5.68434189e-14"></polygon>
                    <polygon fill="#DCDEEA" points="381.8916 64.58475 381.89166 155.91947 190.9458 42.10373"></polygon>
                    <polygon fill="#F7F7FB" points="381.89166 155.91947 270.03717 220.50425 190.9458 42.10373"></polygon>
                    <polygon fill="#DCDEEA" points="190.9458 42.10373 270.03717 220.50425 111.85443 220.50422"></polygon>
                    <polygon fill="#F7F7FB" points="190.9458 42.10373 111.85443 220.50422 0 155.91947"></polygon>
                    <polygon fill="#DCDEEA" points="190.9458 42.10373 0 155.91947 0 64.58478"></polygon>
                    <polygon fill="#F7F7FB" points="111.85449 5.68434189e-14 190.9458 42.10373 0 64.58478"></polygon>
                    <polygon fill="#F7F7FB" points="270.03717 5.68434189e-14 381.8916 64.58475 190.9458 42.10373"></polygon>
                </g>
            </g>
            <g id="Group" transform="translate(1303.798901, 383.778020)">
                <polygon id="Path" fill="#D0D0D6" points="167.67261 193.57556 167.63977 205.12701 334.19031 108.3385 334.22302 96.78699"></polygon>
                <polygon id="Path" fill="#96989D" points="0.03259 96.78851 0 108.34003 167.63977 205.12701 167.67261 193.57556"></polygon>
                <polygon id="Path" fill="#F7F7FB" points="166.58325 0 0.03259 96.78851 167.67261 193.57556 334.22302 96.78699"></polygon>
            </g>
            <g id="Group" transform="translate(-0.000000, 321.723120)">
                <path d="M1807.25068,437.60202 C1807.23628,437.86594 1807.22089,438.12961 1807.19428,438.39304 C1807.17157,438.62229 1807.13959,438.85129 1807.10785,439.08017 C1807.07123,439.34323 1807.03241,439.60617 1806.98407,439.86887 C1806.94159,440.09934 1806.8913,440.32932 1806.83978,440.55942 C1806.78265,440.81516 1806.72162,441.07065 1806.65326,441.32566 C1806.591,441.55711 1806.52216,441.78818 1806.45062,442.01902 C1806.37176,442.27244 1806.28924,442.52549 1806.1994,442.77805 C1806.11883,443.00412 1806.03265,443.22983 1805.94305,443.45505 C1805.83783,443.72043 1805.72625,443.98508 1805.60833,444.24912 C1805.50921,444.47068 1805.40667,444.69175 1805.299,444.91233 C1805.17058,445.17551 1805.03386,445.43796 1804.89275,445.69944 C1804.77849,445.9116 1804.66179,446.12339 1804.53923,446.33433 C1804.35759,446.64585 1804.1635,446.95555 1803.96403,447.26426 C1803.84294,447.45164 1803.72599,447.63963 1803.59855,447.82578 C1803.36515,448.16623 1803.11393,448.50351 1802.8588,448.83994 C1802.74674,448.98716 1802.64322,449.13596 1802.52726,449.2822 C1802.1027,449.81784 1801.64713,450.34702 1801.16569,450.87033 C1801.04313,451.00339 1800.9113,451.134 1800.78532,451.26608 C1800.40495,451.66501 1800.00846,452.06039 1799.59465,452.45114 C1799.40642,452.62887 1799.2177,452.80661 1799.02238,452.98263 C1798.77604,453.20468 1798.52214,453.42452 1798.26506,453.64352 C1798.028,453.84506 1797.78899,454.04611 1797.54265,454.24508 C1797.27532,454.46127 1796.99944,454.67501 1796.72087,454.88815 C1796.46477,455.08395 1796.2072,455.27926 1795.94157,455.47238 C1795.65324,455.6821 1795.35563,455.88888 1795.05607,456.09506 C1794.7797,456.28549 1794.50236,456.47568 1794.21671,456.66318 C1793.90738,456.86582 1793.58805,457.06504 1793.26774,457.26401 C1792.86662,457.5134 1792.46989,457.76425 1792.05143,458.00754 L793.227331,1038.46067 C792.090731,1039.12119 790.900551,1039.73179 789.689121,1040.31858 C789.370641,1040.473 789.048861,1040.62327 788.725501,1040.77256 C787.631511,1041.27756 786.514811,1041.75816 785.370031,1042.20493 C785.218301,1042.26389 785.072541,1042.33005 784.920201,1042.38828 C783.693521,1042.8563 782.430821,1043.27817 781.154331,1043.67966 C780.269081,1043.95847 779.362091,1044.20298 778.456091,1044.44992 C777.769571,1044.63693 777.090861,1044.83652 776.394081,1045.00522 C775.439731,1045.23618 774.465491,1045.42844 773.493811,1045.62522 C772.788731,1045.76792 772.092441,1045.92954 771.379191,1046.0543 C771.085371,1046.10545 770.787761,1046.14732 770.492721,1046.19566 C769.290941,1046.39256 768.079271,1046.56358 766.860271,1046.70982 C766.506391,1046.75206 766.153601,1046.7982 765.798381,1046.83641 C765.098431,1046.91148 764.391521,1046.95433 763.687661,1047.01305 C762.510051,1047.11083 761.330481,1047.19762 760.145671,1047.24877 C759.388711,1047.28197 758.630781,1047.29784 757.872351,1047.31188 C756.913851,1047.32946 755.955601,1047.33776 754.997111,1047.32519 C754.196691,1047.31457 753.397381,1047.2904 752.598181,1047.25891 C751.709511,1047.22375 750.822301,1047.17773 749.937051,1047.11645 C749.127111,1047.06042 748.319861,1046.99194 747.514081,1046.91394 C746.638471,1046.82935 745.766031,1046.73206 744.897011,1046.62158 C744.111731,1046.5216 743.330361,1046.41113 742.552161,1046.29016 C741.619051,1046.14514 740.693401,1045.98205 739.772371,1045.80688 C739.043371,1045.66821 738.317051,1045.52417 737.596831,1045.36669 C736.498931,1045.12597 735.418001,1044.85399 734.344271,1044.56933 C733.645541,1044.38427 732.939731,1044.21179 732.252841,1044.00781 C731.882721,1043.89819 731.517371,1043.78076 731.150671,1043.6654 C730.070101,1043.3258 729.006501,1042.9624 727.960361,1042.57556 C727.657631,1042.46338 727.349281,1042.35852 727.049721,1042.24255 C726.100011,1041.87536 725.183751,1041.46777 724.267861,1041.06091 C723.817181,1040.86059 723.350381,1040.67883 722.908481,1040.46887 C721.585601,1039.84094 720.298371,1039.17505 719.061801,1038.46094 L15.5917114,632.31238 C5.2517714,626.34265 0.0876513967,618.50659 0.109901397,610.68274 L-5.68434189e-14,649.40552 C-0.0221486033,657.22949 5.1421014,665.06519 15.4819114,671.03504 L718.952001,1077.18372 C720.188821,1077.89771 721.475931,1078.56385 722.798681,1079.19178 C723.240701,1079.40174 723.707011,1079.58314 724.157571,1079.78345 C724.940161,1080.13086 725.710911,1080.49231 726.518411,1080.81128 C726.656111,1080.86585 726.800761,1080.9115 726.939551,1080.96521 C727.240331,1081.08142 727.549051,1081.18677 727.853001,1081.29907 C728.897561,1081.68518 729.958471,1082.04785 731.037451,1082.38708 C731.406471,1082.50305 731.772681,1082.62048 732.145481,1082.73107 C732.394381,1082.80504 732.635961,1082.89013 732.886811,1082.96166 C733.326021,1083.08678 733.787081,1083.17333 734.230931,1083.29088 C735.306741,1083.57628 736.387301,1083.84838 737.487641,1084.08946 C737.781101,1084.15379 738.062101,1084.24119 738.357151,1084.30259 C738.786471,1084.39146 739.230071,1084.447 739.662571,1084.5294 C740.584081,1084.70482 741.508521,1084.8679 742.442111,1085.01292 C742.816131,1085.0709 743.180761,1085.15355 743.556371,1085.20665 C743.963351,1085.26439 744.378391,1085.29222 744.787201,1085.34435 C745.656951,1085.45482 746.527801,1085.55199 747.404391,1085.63671 C747.822851,1085.67736 748.234961,1085.74206 748.655001,1085.77636 C749.043921,1085.80859 749.437231,1085.81213 749.827491,1085.83923 C750.713481,1085.90063 751.598971,1085.94629 752.488381,1085.98156 C752.932961,1085.99914 753.375101,1086.04174 753.820171,1086.05522 C754.175761,1086.05522 754.531471,1086.04321 754.887311,1086.04797 C755.846781,1086.05522 756.803331,1086.05522 757.762551,1086.03442 C758.238751,1086.02575 758.715681,1086.04419 759.191261,1086.02795 C759.473851,1086.01831 759.753151,1085.984 760.035381,1085.97168 C761.221541,1085.91992 762.399881,1085.83398 763.578471,1085.7356 C764.053451,1085.69617 764.533791,1085.6875 765.006811,1085.64039 C765.234961,1085.61768 765.460061,1085.58363 765.687721,1085.55921 C766.044531,1085.52076 766.398291,1085.47462 766.753881,1085.43189 C767.971411,1085.28602 769.180391,1085.11536 770.380831,1084.91871 C770.676731,1084.87037 770.974701,1084.82838 771.269381,1084.77686 C771.410981,1084.75196 771.555021,1084.73438 771.696141,1084.70899 C772.267311,1084.60584 772.819191,1084.46229 773.385471,1084.34754 C774.357271,1084.15088 775.329931,1083.95899 776.284151,1083.72803 C776.981661,1083.55896 777.659151,1083.35987 778.346041,1083.17285 C779.252531,1082.9259 780.158911,1082.68139 781.044651,1082.40259 C781.234711,1082.34265 781.435031,1082.29846 781.624481,1082.23706 C782.704921,1081.88672 783.766081,1081.50928 784.810391,1081.11084 C784.962861,1081.05286 785.108001,1080.98718 785.259731,1080.92773 C786.404991,1080.48095 787.521081,1080.00036 788.615321,1079.49548 C788.939291,1079.34594 789.260951,1079.19531 789.579801,1079.04101 C790.791711,1078.4541 791.980921,1077.84374 793.117521,1077.18322 L1791.94125,496.73034 C1792.15707,496.60497 1792.37021,496.47875 1792.58139,496.3518 C1792.77817,496.23339 1792.95981,496.10986 1793.15268,495.99011 C1793.47568,495.7893 1793.79746,495.5885 1794.10947,495.38391 C1794.39341,495.19787 1794.66855,495.00903 1794.94321,494.81995 C1795.24399,494.6128 1795.54258,494.40528 1795.83213,494.19471 C1796.09727,494.00184 1796.35484,493.80653 1796.61094,493.61085 C1796.88926,493.39772 1797.16538,493.18409 1797.43296,492.96778 C1797.6793,492.76868 1797.91807,492.568 1798.15488,492.36634 C1798.41245,492.14722 1798.66611,491.92738 1798.91269,491.70533 C1799.01352,491.61427 1799.12412,491.52576 1799.22324,491.43421 C1799.31553,491.34876 1799.39389,491.25977 1799.48471,491.17383 C1799.89853,490.78296 1800.29501,490.38794 1800.67538,489.98889 C1800.8016,489.85657 1800.93344,489.72607 1801.05575,489.59302 C1801.5372,489.0697 1801.99276,488.54065 1802.41757,488.00501 C1802.43564,487.98206 1802.45761,487.95972 1802.47592,487.93665 C1802.57309,487.81324 1802.65439,487.68677 1802.74863,487.56263 C1803.004,487.22633 1803.25547,486.88905 1803.48886,486.54847 C1803.6163,486.36195 1803.73373,486.17384 1803.85483,485.98609 C1804.05356,485.67811 1804.24741,485.36951 1804.42832,485.05872 C1804.47812,484.97315 1804.53794,484.88916 1804.58628,484.80335 C1804.6583,484.67615 1804.71567,484.54688 1804.78452,484.41919 C1804.9249,484.15906 1805.0604,483.89868 1805.18833,483.63684 C1805.29648,483.41565 1805.39951,483.19397 1805.49863,482.97168 C1805.61631,482.70728 1805.72812,482.44226 1805.83384,482.17639 C1805.88072,482.05798 1805.93858,481.94067 1805.98325,481.8219 C1806.02304,481.71558 1806.05137,481.60803 1806.08896,481.50134 C1806.17905,481.24865 1806.26206,480.99548 1806.34042,480.7417 C1806.4122,480.51074 1806.48105,480.27966 1806.54379,480.04797 C1806.61191,479.79382 1806.67221,479.53943 1806.72934,479.28466 C1806.76035,479.14623 1806.80283,479.00841 1806.83017,478.86962 C1806.84921,478.77648 1806.85727,478.68297 1806.87436,478.58971 C1806.9227,478.32763 1806.96176,478.06517 1806.9979,477.8026 C1807.02988,477.57445 1807.06162,477.34618 1807.08457,477.11766 C1807.11094,476.85191 1807.12681,476.58629 1807.14145,476.32042 C1807.14975,476.16722 1807.16977,476.01427 1807.17441,475.86095 C1807.1788,475.70751 1807.181,475.55394 1807.18149,475.40038 L1807.29135,436.6776 C1807.29135,436.98593 1807.26802,437.29391 1807.25068,437.60202 Z" id="Path" fill="#C5C5D6"></path>
                <path d="M1792.05171,458.01486 L793.224441,1038.46737 C772.809521,1050.31869 739.606401,1050.31869 719.057451,1038.46737 L15.5984714,632.30734 C-4.9503886,620.45602 -5.0650686,601.207 15.3499714,589.35556 L1014.17736,8.90286 C1034.59228,-2.96762 1067.79565,-2.96762 1088.34447,8.90286 L1303.79198,133.28555 L1415.63512,197.85678 L1791.80345,415.04385 C1812.35225,426.9144 1812.46699,446.14425 1792.05171,458.01486 Z" id="Path" fill="#F7F7FB"></path>
                <path d="M1712.05464,444.97824 L1687.79732,459.06613 L767.380821,993.96713 C766.482261,994.46408 762.487391,995.89779 756.198451,995.89779 C750.253381,995.89779 745.952481,994.54061 744.786711,993.89083 L119.604401,632.93832 L95.3664814,618.94577 C89.0009414,615.27585 88.9818414,606.08127 95.3473114,602.37302 L1040.02108,53.40311 C1040.91952,52.9061 1044.91476,51.47245 1051.20345,51.47245 C1057.14827,51.47245 1061.44918,52.81058 1062.61519,53.46043 L1712.0356,428.40538 C1718.40083,432.09457 1718.41987,441.28903 1712.05464,444.97824 Z" id="Path" fill="#DCDEEA"></path>
                <path d="M1687.79731,459.06613 L767.380811,993.96713 C766.482251,994.46408 762.487381,995.89779 756.198441,995.89779 C750.253371,995.89779 745.952471,994.54061 744.786701,993.89083 L119.604391,632.93832 L1040.02108,98.03707 C1040.91952,97.54006 1044.91476,96.10641 1051.20345,96.10641 C1057.14827,96.10641 1061.44918,97.46365 1062.61519,98.11361 L1687.79731,459.06613 Z" id="Path" fill="#A8D3EC"></path>
                <path d="M1051.20344,287.25857 C1044.91474,287.25857 1040.9195,288.69222 1040.02107,289.18923 L284.603101,728.20125 L744.786691,993.89083 C745.952461,994.54061 750.253361,995.89779 756.198431,995.89779 C762.487371,995.89779 766.482241,994.46407 767.380801,993.96713 L1522.79852,554.95541 L1062.61517,289.26577 C1061.44917,288.61581 1057.14827,287.25857 1051.20344,287.25857 Z" id="Path" fill="#D2E8F3"></path>
                <g transform="translate(198.362991, 171.216580)" id="Path">
                    <g transform="translate(0.000000, 57.546450)">
                        <polygon fill="#86C6EC" points="713.97644 18.0451 671.1228 42.78455 671.12207 24.7395 713.97583 -1.13686838e-13"></polygon>
                        <polygon fill="#86C6EC" points="678.18078 119.90424 635.32702 144.64374 635.32641 126.59863 678.18005 101.85919"></polygon>
                        <polygon fill="#93CAEA" points="600.13879 85.49689 557.28503 110.23633 557.28442 92.19128 600.13806 67.45178"></polygon>
                        <polygon fill="#93CAEA" points="161.56085 421.29065 118.70709 446.03003 118.70642 427.98498 161.56018 403.24548"></polygon>
                        <polygon fill="#93CAEA" points="786.58679 56.46399 743.73303 81.20343 743.73242 63.15839 786.58606 38.41888"></polygon>
                        <polygon fill="#86C6EC" points="483.6001 167.84973 440.74646 192.58917 440.74573 174.54413 483.59948 149.80469"></polygon>
                        <polygon fill="#86C6EC" points="196.87188 319.70422 154.01819 344.4436 154.01751 326.39856 196.87121 301.65906"></polygon>
                        <polygon fill="#B4D7EB" points="574.96386 189.242 532.11011 213.98144 532.10937 195.9364 574.96313 171.19696"></polygon>
                        <polygon fill="#B4D7EB" points="42.85443 381.08862 0.00067 405.82812 0 387.78296 42.85376 363.04358"></polygon>
                    </g>
                    <g transform="translate(911.508540, 0.000000)">
                        <polygon fill="#93CAEA" points="223.74671 249.78687 180.89295 225.04743 180.89356 207.00238 223.74732 231.74182"></polygon>
                        <polygon fill="#86C6EC" points="42.85376 42.78449 0 18.04505 0.00073 -1.13686838e-13 42.85449 24.73944"></polygon>
                        <polygon fill="#86C6EC" points="341.22657 312.84821 298.37281 288.10883 298.37354 270.06366 341.2273 294.80316"></polygon>
                        <polygon fill="#86C6EC" points="393.79346 228.39459 350.9397 203.65515 350.94031 185.61011 393.79407 210.34955"></polygon>
                        <polygon fill="#B4D7EB" points="309.76514 242.0603 266.91138 217.32086 266.91211 199.27582 309.76575 224.01526"></polygon>
                        <polygon fill="#B4D7EB" points="446.25794 332.01422 403.4043 307.27472 403.40491 289.22968 446.25867 313.96918"></polygon>
                    </g>
                </g>
                <polygon id="Path" fill="#93CAEA" points="1419.63728 304.2424 1419.63728 495.39462 1315.10334 434.98825 1315.10334 244.16153"></polygon>
            </g>
            <polygon id="Path" fill="#D0D0D6" points="1419.63728 581.31134 1419.63728 625.96552 1356.65351 589.60151 1379.25874 560.9516"></polygon>
            <polygon id="Path" fill="#E5E5EA" points="1477.66401 547.71039 1419.63728 581.31134 1318.20771 522.75068 1381.55635 492.2226"></polygon>
            <g id="Group" transform="translate(1381.556351, 382.681100)">
                <polygon id="Path" fill="#BDBDC2" points="210.18554 55.48785 210.06274 98.8059 96.10779 165.02929 96.23059 121.71124"></polygon>
                <polygon id="Path" fill="#D0D0D6" points="0.1228 66.22338 0 109.5415 96.10766 165.02929 96.23047 121.71118"></polygon>
                <polygon id="Path" fill="#7AAF37" points="114.07763 0 0.1228 66.22338 96.23047 121.71118 210.18554 55.48779"></polygon>
            </g>
            <g id="Group" transform="translate(1053.932201, 372.970340)">
                <polygon id="Path" fill="#DCDEEA" points="111.87879 319.24518 111.83923 333.24579 550.07483 78.57092 550.11463 64.57044"></polygon>
                <polygon id="Path" fill="#DCDEEA" points="0.03955 254.67474 0 268.67523 111.83923 333.24579 111.87879 319.24518"></polygon>
                <polygon id="Path" fill="#F7F7FB" points="432.77832 0 0.03955 254.67474 111.87879 319.24518 550.11463 64.57044"></polygon>
            </g>
            <g id="Group" transform="translate(304.746531, 676.978510)">
                <path d="M69.81836,294.00593 L69.81836,294.00593 C66.10547,294.00593 63.09668,290.99616 63.09668,287.28425 L63.09863,221.21003 C63.09863,217.49812 66.1084,214.48835 69.82031,214.48835 L69.82031,214.48835 C73.5332,214.48835 76.54199,217.49812 76.54199,221.21003 L76.54004,287.28425 C76.54004,290.99616 73.53028,294.00593 69.81836,294.00593 Z" id="Path" fill="#85C0E2"></path>
                <path d="M84.9549,208.09101 C76.59882,203.26643 63.0517,203.26643 54.69562,208.09101 C46.34015,212.91572 46.34015,220.73786 54.69562,225.56245 C63.0517,230.38703 76.59882,230.38703 84.9549,225.56245 C93.31037,220.73786 93.31037,212.91572 84.9549,208.09101 Z" id="Path" fill="#9ACDEA"></path>
                <path d="M72.51172,153.52058 C70.19531,153.52058 67.94238,152.32234 66.69434,150.17488 C64.82911,146.9659 65.91895,142.85164 69.12891,140.9864 L129.5586,105.86628 C132.76758,104.00202 136.88184,105.09089 138.74708,108.30085 C140.61231,111.50983 139.52247,115.62409 136.31251,117.48933 L75.88282,152.60945 C74.82032,153.22663 73.65821,153.52058 72.51172,153.52058 Z" id="Path" fill="#D7E3F4"></path>
                <path d="M72.51172,253.45613 C70.19531,253.45613 67.94141,252.25789 66.69434,250.11043 C64.82911,246.90047 65.91895,242.78719 69.12891,240.92195 L129.54297,205.81648 C132.75195,203.95222 136.86719,205.04011 138.73145,208.25105 C140.59668,211.46101 139.50684,215.57429 136.29688,217.43953 L75.88282,252.545 C74.82032,253.16218 73.65821,253.45613 72.51172,253.45613 Z" id="Path" fill="#85C0E2"></path>
                <path d="M69.82129,220.77937 L69.82129,220.77937 C66.1084,220.77937 63.09961,217.7696 63.09961,214.05769 L63.10352,101.25886 C63.1045,83.6143304 50.19532,61.2559304 34.91504,52.4346404 C28.74609,48.8731204 23.0625,48.0674504 19.32617,50.2246804 C15.58887,52.3828804 13.44531,57.7061304 13.44531,64.8301504 L13.44336,104.02742 C13.44336,107.73933 10.43359,110.7491 6.72168,110.7491 L6.72168,110.7491 C3.00879,110.7491 0,107.73933 0,104.02742 L0.00195,64.8301504 C0.00195,52.5967504 4.47754,43.2754604 12.60449,38.5830804 C20.72851,33.8907004 31.04101,34.6758504 41.63574,40.7920604 C61.21289,52.0938204 76.54785,78.6543604 76.54687,101.25886 L76.54296,214.05769 C76.54297,217.7696 73.53321,220.77937 69.82129,220.77937 Z" id="Path" fill="#D7E3F4"></path>
                <path d="M135.60254,258.44929 L135.60254,258.44929 C131.88965,258.44929 128.88086,255.43952 128.88086,251.72761 L128.88379,185.65339 C128.88379,181.94148 131.89356,178.93171 135.60547,178.93171 L135.60547,178.93171 C139.31836,178.93171 142.32715,181.94148 142.32715,185.65339 L142.32422,251.72761 C142.32422,255.43952 139.31446,258.44929 135.60254,258.44929 Z" id="Path" fill="#85C0E2"></path>
                <path d="M150.73914,172.53425 C142.38306,167.70967 128.836,167.70967 120.47992,172.53425 C112.12439,177.35896 112.12439,185.18122 120.47992,190.00581 C128.836,194.83039 142.38306,194.83039 150.73914,190.00581 C159.09461,185.18122 159.09461,177.35896 150.73914,172.53425 Z" id="Path" fill="#9ACDEA"></path>
                <path d="M135.60547,185.22273 L135.60547,185.22273 C131.89258,185.22273 128.88379,182.21296 128.88379,178.50105 L128.8877,65.7022204 C128.88868,48.0576904 115.9795,25.6992904 100.69922,16.8780004 C94.5293,13.3155004 88.84766,12.5098404 85.11035,14.6680404 C81.37304,16.8262404 79.22949,22.1494904 79.22949,29.2735104 L79.22754,68.4707804 C79.22754,72.1826904 76.21777,75.1924604 72.50586,75.1924604 L72.50586,75.1924604 C68.79297,75.1924604 65.78418,72.1826904 65.78418,68.4707804 L65.78613,29.2735104 C65.78711,17.0391304 70.26269,7.71785039 78.38965,3.02644039 C86.51465,-1.66593961 96.82617,-0.880789607 107.41992,5.23542039 C126.99707,16.5371804 142.33203,43.0977204 142.33105,65.7022204 L142.32714,178.50105 C142.32715,182.21296 139.31739,185.22273 135.60547,185.22273 Z" id="Path" fill="#D7E3F4"></path>
                <path d="M72.51172,203.49616 C70.19629,203.49616 67.94238,202.29792 66.69531,200.15143 C64.8291,196.94245 65.91797,192.82819 69.12793,190.96295 L129.54199,155.84186 C132.74902,153.97565 136.86523,155.06452 138.73047,158.27448 C140.59668,161.48346 139.50781,165.59772 136.29785,167.46296 L75.88379,202.58405 C74.82129,203.20222 73.65918,203.49616 72.51172,203.49616 Z" id="Path" fill="#D7E3F4"></path>
            </g>
            <polygon id="Path" fill="#A8D3EC" points="1314.86274 756.71137 1001.54487 940.35871 1106.31953 1000.85041 1419.63728 817.20295"></polygon>
            <g id="Group" transform="translate(359.534689, 271.158589)">
                <g transform="translate(66.327424, 192.791871)" id="Path">
                    <path d="M37.8633681,11.00377 C37.8247981,25.2426 0.0213281064,25.2072 0.0617981064,10.89592 L0.0617981064,10.89665 L0.0617981064,10.89592 C0.602998106,14.11424 -2.18741189,19.46165 5.62600811,23.97264 C15.8173581,29.85795 37.8482981,26.81334 37.8482981,16.28538 L37.8482981,16.28538 L37.8633681,11.00377 Z" fill="#C5C5D6"></path>
                    <path d="M32.2841981,3.20769 C24.8759981,-1.06929 12.9137181,-1.06923 5.55384811,3.20787 C-1.79954189,7.48125 -1.76713189,14.41405 5.64106811,18.69109 C13.0425581,22.96434 25.0178981,22.96428 32.3712881,18.69097 C39.7311581,14.4138 39.6856881,7.48106 32.2841981,3.20769 Z" fill="#F7F7FB"></path>
                </g>
                <path d="M93.682122,86.5057813 C93.593562,87.5782313 94.399342,84.9286313 91.255362,83.1135113 C88.023732,81.2477913 82.808892,81.2515713 79.604662,83.1135713 C78.007312,84.0419813 77.209642,85.2582813 77.211172,86.4758113 C77.211172,86.4721513 77.210192,86.4684913 77.210192,86.4647613 L76.874428,204.903791 C76.856982,211.062301 93.165092,211.347881 93.345142,205.017131 C93.369192,204.086411 93.366512,197.700791 93.682122,86.5057813 L93.682122,86.5057813 Z M93.583732,87.1991413 C93.600882,87.1321213 93.620842,87.0653513 93.632922,86.9980913 C93.620902,87.0483813 93.600152,87.1350513 93.583732,87.1991413 Z M93.428882,87.6522113 C93.456902,87.5869613 93.487292,87.5220813 93.510482,87.4563513 C93.490352,87.5054213 93.455922,87.5894013 93.428882,87.6522113 Z M93.195792,88.0994113 C93.233452,88.0381313 93.273062,87.9771013 93.306322,87.9150213 C93.278922,87.9612913 93.232172,88.0400813 93.195792,88.0994113 Z M92.885242,88.5342213 C92.924972,88.4855113 92.965322,88.4369913 93.001942,88.3876713 C92.973012,88.4244813 92.923762,88.4869813 92.885242,88.5342213 Z M91.604052,89.6542213 C91.523242,89.7089113 91.370902,89.8094313 91.286852,89.8582613 C91.399772,89.7927113 91.499132,89.7225813 91.604052,89.6542213 Z M77.230702,86.7202013 C77.237052,86.7915513 77.237412,86.8629613 77.249252,86.9341313 C77.237422,86.8629613 77.237052,86.7915513 77.230702,86.7202013 Z M77.311212,87.1838213 C77.329032,87.2523613 77.340572,87.3213913 77.363522,87.3895713 C77.340572,87.3213913 77.329032,87.2523613 77.311212,87.1838213 Z M77.465572,87.6318813 C77.495172,87.7007913 77.518852,87.7704913 77.553772,87.8387313 C77.518732,87.7704313 77.495172,87.7008513 77.465572,87.6318813 Z M77.699572,88.0801213 C77.740102,88.1457313 77.773972,88.2122613 77.819572,88.2770213 C77.773982,88.2123213 77.740102,88.1457413 77.699572,88.0801213 Z M78.017632,88.5238513 C78.066212,88.5831813 78.108332,88.6438513 78.161372,88.7021313 C78.108332,88.6438413 78.066212,88.5831713 78.017632,88.5238513 Z M79.072742,89.4979713 C79.023672,89.4631813 78.983082,89.4260113 78.935962,89.3907313 C78.983082,89.4260113 79.023672,89.4632413 79.072742,89.4979713 Z M78.578972,89.1101513 C78.522632,89.0608913 78.476682,89.0090113 78.423762,88.9588413 C78.476672,89.0090213 78.522632,89.0609013 78.578972,89.1101513 Z" id="Shape" fill="#DCDEEA"></path>
                <g id="Path">
                    <path d="M3.54815197,63.2987513 C1.19079197,58.6836413 0.0185519667,53.9102013 0.0319819667,49.1395713 L0,60.3629613 C-0.0998580333,95.6956613 61.286192,118.962811 116.224062,106.681691 C180.097292,92.4030613 169.756102,54.0820813 170.555602,49.6261513 C170.387812,105.936021 30.756762,116.568951 3.54815197,63.2987513 Z" fill="#C5C5D6"></path>
                    <path d="M145.389882,14.4644613 C111.985282,-4.82166875 57.992052,-4.82148875 24.804612,14.4650113 C-8.38300803,33.7514513 -8.20038803,65.0225713 25.204212,84.3087013 C58.608812,103.594831 112.589042,103.594651 145.776542,84.3081513 C178.964102,65.0217113 178.794422,33.7505913 145.389882,14.4644613 Z" fill="#F7F7FB"></path>
                </g>
            </g>
            <g id="Group" transform="translate(155.258339, 275.530038)">
                <g transform="translate(119.120882, 59.707572)" id="Path">
                    <polygon fill="#DCDEEA" points="20.90283 30.12409 20.67157 110.84034 10.89539 116.51929 11.1543 24.50068"></polygon>
                    <polygon fill="#DCDEEA" points="130.31879 69.43244 130.02283 173.97425 120.24658 179.65314 120.54261 75.11133"></polygon>
                    <polygon fill="#F7F7FB" points="130.31879 69.43244 120.54261 75.11133 0.29596 5.68818 10.07221 1.13686838e-13"></polygon>
                    <polygon fill="#BABAC6" points="120.54261 75.11133 120.24658 179.65314 109.36054 173.37305 109.61951 81.34522 20.90283 30.12409 11.1543 24.50068 10.89539 116.51929 0 110.22992 0.29596 5.68818"></polygon>
                </g>
                <g id="Path">
                    <path d="M87.9249022,6.97064185 C87.9158722,6.94519185 87.9067722,6.91974185 87.8975622,6.89429185 C87.8641122,6.80207185 87.8296322,6.71021185 87.7940422,6.61890185 C87.7593722,6.52973185 87.7236722,6.44104185 87.6870522,6.35285185 C87.6503722,6.26465185 87.6128322,6.17695185 87.5743222,6.08973185 C87.5584522,6.05390185 87.5417922,6.01856185 87.5256122,5.98286185 C87.5204222,5.97139185 87.5152322,5.95997185 87.5099822,5.94856185 C87.4913022,5.90754185 87.4731122,5.86628185 87.4540722,5.82557185 C87.4093922,5.73036185 87.3636222,5.63575185 87.3168022,5.54188185 C87.2629722,5.43379185 87.2077322,5.32679185 87.1512122,5.22065185 C87.1225822,5.16700185 87.0917622,5.11524185 87.0625322,5.06214185 C87.0414122,5.02381185 87.0200522,4.98591185 86.9985722,4.94782185 C86.9623222,4.88355185 86.9276522,4.81806185 86.8904222,4.75464185 C86.7834922,4.57208185 86.6691722,4.39655185 86.5547922,4.22119185 C86.5244622,4.17480185 86.4968122,4.12610185 86.4660422,4.08020185 C86.4594522,4.07037185 86.4535922,4.05975185 86.4469422,4.04993185 C86.3392722,3.89032185 86.2287422,3.73401185 86.1155822,3.58124185 C86.0406922,3.48004185 85.9645822,3.38050185 85.8874922,3.28253185 C85.8837122,3.27777185 85.8797422,3.27319185 85.8759522,3.26837185 C85.8725922,3.26410185 85.8691122,3.25995185 85.8657622,3.25567185 C85.8030822,3.17651185 85.7399122,3.09814185 85.6758822,3.02117185 C85.6063022,2.93749185 85.5359322,2.85522185 85.4648822,2.77428185 C85.3935922,2.69310185 85.3215722,2.61327185 85.2488822,2.53502185 C85.2401522,2.52556185 85.2312422,2.51671185 85.2224522,2.50731185 C85.2158622,2.50023185 85.2092122,2.49346185 85.2025522,2.48637185 C85.1434122,2.42326185 85.0840822,2.36052185 85.0241422,2.29942185 C84.9462022,2.22001185 84.8675822,2.14232185 84.7884222,2.06633185 C84.7075522,1.98869185 84.6260722,1.91295185 84.5440422,1.83904185 C84.5381822,1.83379185 84.5322622,1.82891185 84.5263422,1.82366185 C84.5206622,1.81853185 84.5149922,1.81377185 84.5092522,1.80871185 C84.4386322,1.74572185 84.3678322,1.68340185 84.2965422,1.62316185 C84.2148722,1.55425185 84.1327822,1.48723185 84.0502622,1.42211185 C83.9698222,1.35869185 83.8890122,1.29705185 83.8078922,1.23730185 C83.8052722,1.23541185 83.8025822,1.23358185 83.7999622,1.23162185 C83.7984322,1.23052185 83.7969122,1.22954185 83.7953822,1.22845185 C83.7206722,1.17364185 83.6457222,1.12011185 83.5704722,1.06854185 C83.4932022,1.01562185 83.4156822,0.964411847 83.3379922,0.915041847 C83.2627322,0.867131847 83.1873622,0.820981847 83.1117922,0.776551847 C83.0943322,0.766301847 83.0769422,0.756101847 83.0595422,0.746031847 C83.0025322,0.713131847 82.9454722,0.681271847 82.8883422,0.650331847 C82.8150422,0.610661847 82.7416122,0.572571847 82.6681322,0.536321847 C82.5953822,0.500251847 82.5225622,0.465951847 82.4497522,0.433351847 C82.4425522,0.430181847 82.4354722,0.427431847 82.4282722,0.424321847 C82.4221722,0.421571847 82.4160022,0.419131847 82.4098422,0.416451847 C82.3505122,0.390451847 82.2911922,0.364691847 82.2319222,0.340891847 C82.1589822,0.311721847 82.0861722,0.284311847 82.0133522,0.258681847 C81.9398022,0.232741847 81.8663822,0.208691847 81.7930122,0.186601847 C81.7910022,0.185991847 81.7889822,0.185501847 81.7889822,0.185501847 C81.7844622,0.184101847 81.7819622,0.183551847 81.7819622,0.183551847 C81.7092722,0.161761847 81.6390222,0.142171847 81.5690122,0.124651847 C81.4924122,0.105551847 81.4159922,0.0884618471 81.3398222,0.0736218471 C81.2847122,0.0628818471 81.2298322,0.0548218471 81.1750322,0.0463418471 C81.1644722,0.0447518471 81.1538522,0.0426818471 81.1432322,0.0410918471 C81.1299222,0.0392018471 81.1164422,0.0362718471 81.1030722,0.0344418471 C81.0201222,0.0232118471 80.9375422,0.0146618471 80.8553922,0.00893184713 C80.7669522,0.00270184713 80.6791222,1.13686838e-13 80.5919022,1.13686838e-13 C80.5748122,1.13686838e-13 80.5577222,1.13686838e-13 80.5406322,1.13686838e-13 C80.4585422,0.00210184713 80.3779122,0.00649184713 80.2988122,0.0138118471 C80.1898022,0.0238218471 80.0837822,0.0393218471 79.9806922,0.0600118471 C79.9376022,0.0686818471 79.8982922,0.0838118471 79.8562422,0.0943118471 C79.8202922,0.103281847 79.7852622,0.113351847 79.7501022,0.123611847 C79.6997522,0.138381847 79.6466522,0.148331847 79.5978822,0.165661847 C79.4449322,0.220041847 79.2999122,0.287551847 79.1630722,0.366951847 L79.1625222,0.367191847 L1.60148223,45.4407418 C1.78221223,45.3357018 1.98087223,45.2579418 2.18949223,45.1970918 C2.22422223,45.1869018 2.25919223,45.1768918 2.29478223,45.1679818 C2.51042223,45.1142118 2.73674223,45.0785618 2.97953223,45.0741718 C3.17734223,45.0705718 3.37870223,45.0851018 3.58213223,45.1147018 C3.59275223,45.1162918 3.60331223,45.1183018 3.61393223,45.1199518 C3.81394223,45.1507118 4.01603223,45.1956918 4.21934223,45.2566118 L4.22526223,45.2582618 C4.43211223,45.3204518 4.64024223,45.3984618 4.84855223,45.4899518 C4.85484223,45.4927018 4.86100223,45.4950818 4.86723223,45.4978818 C5.07774223,45.5911418 5.28849223,45.6984418 5.49846223,45.8196018 C5.74510223,45.9620618 5.99053223,46.1233118 6.23326223,46.3013518 C6.23527223,46.3028118 6.23741223,46.3042218 6.23942223,46.3056818 C6.47898223,46.4816418 6.71568223,46.6747618 6.94816223,46.8823418 C6.95390223,46.8874118 6.95963223,46.8922318 6.96525223,46.8972918 C7.19554223,47.1037718 7.42130223,47.3254518 7.64146223,47.5600118 C7.64805223,47.5670918 7.65477223,47.5738618 7.66136223,47.5808818 C7.88231223,47.8175718 8.09727223,48.0674518 8.30473223,48.3294218 C8.30809223,48.3336318 8.31144223,48.3377218 8.31486223,48.3419318 C8.51969223,48.6013318 8.71665223,48.8730618 8.90519223,49.1541918 C8.93540223,49.1992918 8.96275223,49.2473318 8.99253223,49.2929218 C9.14713223,49.5298018 9.29679223,49.7720518 9.43766223,50.0218018 C9.45902223,50.0596418 9.48032223,50.0974818 9.50132223,50.1355118 C9.66032223,50.4240218 9.81077223,50.7193118 9.94889223,51.0221718 C9.95408223,51.0335218 9.95933223,51.0450618 9.96452223,51.0564718 C10.1105822,51.3790418 10.2446722,51.7085718 10.3638122,52.0442618 L39.6132022,134.314282 L117.174302,89.2406718 L87.9249022,6.97064185 Z" fill="#DCDEEA"></path>
                    <path d="M321.307412,284.718802 C321.306622,284.690852 321.304602,284.662222 321.303442,284.634022 C321.302712,284.615102 321.301672,284.596122 321.300752,284.577142 C321.298742,284.536372 321.297582,284.496212 321.295132,284.455072 C321.289452,284.367362 321.282432,284.278802 321.273892,284.189572 C321.269132,284.138482 321.262602,284.086662 321.256742,284.035032 C321.254662,284.017512 321.253082,284.000182 321.250822,283.982602 C321.248382,283.961542 321.246552,283.940792 321.243862,283.919732 C321.232322,283.828542 321.219202,283.736752 321.204802,283.644282 C321.191682,283.561092 321.176912,283.477102 321.161342,283.392942 C321.160182,283.386902 321.159262,283.380982 321.158172,283.374932 C321.157622,283.371512 321.157012,283.368092 321.156462,283.364682 C321.138642,283.269892 321.119232,283.174622 321.098422,283.078732 C321.077422,282.982972 321.055092,282.886652 321.031162,282.789912 C321.028112,282.777832 321.024572,282.765562 321.021522,282.753472 C321.018042,282.739622 321.014202,282.725762 321.010592,282.711842 C320.992522,282.640982 320.974462,282.570122 320.954622,282.498832 C320.927952,282.402822 320.899932,282.306512 320.870272,282.209772 C320.860322,282.177362 320.849402,282.144832 320.838962,282.112362 C320.832672,282.092042 320.826082,282.071832 320.819552,282.051512 C320.806002,282.009582 320.793242,281.967652 320.779142,281.925592 C320.748202,281.833182 320.715912,281.740532 320.682282,281.647572 C320.656952,281.577682 320.630222,281.507562 320.603482,281.437432 C320.599512,281.427182 320.595912,281.417112 320.591942,281.406852 C320.588342,281.397332 320.584922,281.387932 320.581202,281.378352 C320.546652,281.289542 320.510892,281.200622 320.473842,281.111502 C320.437712,281.024522 320.400482,280.937432 320.361842,280.850272 C320.350122,280.823842 320.337672,280.797352 320.325712,280.770862 C320.317712,280.752982 320.309472,280.735152 320.301362,280.717272 C320.280792,280.672352 320.261142,280.627492 320.240022,280.582632 C320.194302,280.485162 320.147122,280.387562 320.098362,280.290032 C320.061982,280.217222 320.024932,280.144462 319.986912,280.071652 L274.973792,306.230402 L319.987222,280.068232 L264.761332,174.444332 L187.199012,219.524102 L242.425022,325.148002 L242.426732,325.147022 C242.538612,325.361742 242.642672,325.576772 242.740452,325.791252 C242.748382,325.808892 242.756502,325.826352 242.764382,325.843982 C242.860142,326.056692 242.949262,326.269092 243.030862,326.480392 C243.034712,326.490702 243.038432,326.500902 243.042402,326.511152 C243.121202,326.717022 243.192972,326.921862 243.258462,327.125352 C243.264992,327.145492 243.271582,327.165692 243.277872,327.185772 C243.341592,327.387002 243.398722,327.586832 243.449262,327.784832 C243.452922,327.798992 243.456952,327.813212 243.460552,327.827372 C243.513162,328.036722 243.558882,328.244182 243.597212,328.448772 C243.598192,328.454572 243.598982,328.460312 243.600142,328.466172 C243.637072,328.665692 243.666732,328.862412 243.689742,329.056202 C243.691942,329.073722 243.693592,329.091112 243.695662,329.108632 C243.716532,329.292412 243.731062,329.473192 243.739672,329.650742 C243.740592,329.669722 243.741562,329.688702 243.742362,329.707622 C243.749622,329.886332 243.750542,330.061562 243.745352,330.232952 C243.744862,330.246992 243.744862,330.261152 243.744432,330.275062 C243.737842,330.451882 243.724532,330.624362 243.704702,330.792212 C243.703782,330.800572 243.703112,330.809242 243.702082,330.817602 C243.681762,330.983312 243.654112,331.143712 243.620662,331.299592 C243.617852,331.312962 243.615472,331.326812 243.612542,331.340122 C243.580502,331.484772 243.540952,331.623572 243.497612,331.758822 C243.487482,331.790252 243.477292,331.821502 243.466482,331.852392 C243.421742,331.981722 243.372302,332.106912 243.316762,332.226352 C243.312242,332.236122 243.308582,332.246742 243.304002,332.256442 C243.239612,332.391942 243.168142,332.520292 243.090012,332.641752 C242.981432,332.810272 242.855392,332.959682 242.720382,333.098542 C242.687422,333.132542 242.653302,333.165312 242.618762,333.197422 C242.476182,333.329682 242.325122,333.451882 242.155872,333.550262 L319.716972,288.476652 C319.886342,288.378262 320.037282,288.256072 320.179862,288.123682 C320.214412,288.091582 320.248402,288.059042 320.281362,288.025112 C320.416432,287.886132 320.542652,287.736782 320.651112,287.568022 C320.652272,287.566312 320.653862,287.565032 320.654962,287.563322 C320.730522,287.445582 320.799492,287.321012 320.862052,287.190152 C320.863152,287.187832 320.863942,287.185212 320.865102,287.182952 C320.869742,287.173182 320.873342,287.162562 320.877862,287.152742 C320.920102,287.061742 320.960502,286.968902 320.996632,286.872162 C321.007922,286.841892 321.016952,286.809542 321.027572,286.778722 C321.038252,286.747842 321.048572,286.716712 321.058582,286.685342 C321.070242,286.648962 321.083792,286.614052 321.094592,286.577002 C321.121692,286.484352 321.146352,286.389622 321.168442,286.292762 C321.170452,286.284152 321.171862,286.275122 321.173632,286.266512 C321.176562,286.253202 321.178942,286.239472 321.181752,286.226102 C321.195912,286.160432 321.210012,286.094692 321.221732,286.027192 C321.236872,285.939852 321.250052,285.851102 321.261462,285.760952 C321.262132,285.755402 321.262502,285.749482 321.263172,285.743922 C321.264212,285.735562 321.264762,285.727012 321.265792,285.718652 C321.274332,285.646202 321.282452,285.573392 321.288432,285.499172 C321.295572,285.413782 321.300762,285.327292 321.304602,285.239772 C321.305032,285.227202 321.305032,285.214202 321.305522,285.201502 C321.305952,285.187582 321.305952,285.173422 321.306442,285.159392 C321.308212,285.099452 321.310799,285.039642 321.310799,284.978732 C321.310799,284.893002 321.310799,284.806332 321.307412,284.718802 Z" fill="#DCDEEA"></path>
                    <polygon fill="#F7F7FB" points="117.174592 89.2423018 39.6122222 134.312802 187.199012 219.524102 264.761322 174.444332"></polygon>
                    <path d="M242.425022,325.148002 L187.199012,219.524102 L39.6122222,134.312802 L10.3668022,52.0426618 C9.39567223,49.3142118 7.48112223,46.9649618 5.50181223,45.8180518 C4.65092223,45.3278818 3.79075223,45.0596318 2.97685223,45.0772798 C0.285442235,45.1243818 -0.778277765,48.3153018 0.609112235,52.2183818 L32.9067222,143.062372 L182.149032,229.226312 L234.100872,328.597892 C235.182962,330.669612 236.709092,332.288202 238.253702,333.176142 C239.520672,333.906792 240.797162,334.147272 241.832982,333.703362 C244.135962,332.759942 244.394932,328.921562 242.425022,325.148002 Z" fill="#BABAC6"></path>
                </g>
                <g transform="translate(42.012732, 109.189872)" id="Path">
                    <polygon fill="#DCDEEA" points="20.90283 30.12409 20.67157 110.84034 10.89538 116.51929 11.1543 24.50068"></polygon>
                    <polygon fill="#DCDEEA" points="130.31885 69.43244 130.02283 173.97425 120.24664 179.65314 120.5426 75.11133"></polygon>
                    <polygon fill="#F7F7FB" points="130.31885 69.43244 120.5426 75.11133 0.29596 5.68818 10.0722 0"></polygon>
                    <polygon fill="#BABAC6" points="120.5426 75.11133 120.24664 179.65314 109.36053 173.37305 109.61951 81.34522 20.90283 30.12409 11.1543 24.50068 10.89538 116.51929 0 110.22992 0.29596 5.68818"></polygon>
                </g>
            </g>
        </g>
    </g>
</svg>