<svg version="1.1" viewBox="0.0 0.0 100.0 100.0" fill="none" stroke="none" stroke-linecap="square" stroke-miterlimit="10" xmlns:xlink="http://www.w3.org/1999/xlink" xmlns="http://www.w3.org/2000/svg"><clipPath id="p.0"><path d="m0 0l100.0 0l0 100.0l-100.0 0l0 -100.0z" clip-rule="nonzero"/></clipPath><g clip-path="url(#p.0)"><path fill="#000000" fill-opacity="0.0" d="m0 0l100.0 0l0 100.0l-100.0 0z" fill-rule="evenodd"/><path fill="#000000" fill-opacity="0.0" d="m4.031496 17.370079l36.62992 0l0 62.58268l-36.62992 0z" fill-rule="evenodd"/><path fill="#2c7df7" d="m20.328371 72.45007l0 -34.843746l-6.578125 0l0 -4.03125l18.390627 0l0 4.03125l-6.390627 0l0 34.843746l-5.421875 0z" fill-rule="nonzero"/><path fill="#2c7df7" d="m66.490814 34.446194l16.472443 0l0 16.472443l-16.472443 0z" fill-rule="evenodd"/><path fill="#000000" fill-opacity="0.0" d="m27.440945 17.370079l36.629925 0l0 62.58268l-36.629925 0z" fill-rule="evenodd"/><path fill="#2c7df7" d="m48.722195 72.93445q-3.640625 0 -5.828125 -1.5625q-2.1875 -1.5625 -3.171875 -4.53125q-0.984375 -2.9843712 -0.984375 -7.156246l0 -13.015625q0 -4.265625 0.890625 -7.265625q0.890625 -3.0 3.171875 -4.578125q2.28125 -1.59375 6.359375 -1.59375q3.65625 0 5.875 1.234375q2.234375 1.21875 3.234375 3.734375q1.015625 2.515625 1.015625 6.359375l0 1.4375l-5.078125 0l0 -1.1875q0 -2.546875 -0.34375 -4.15625q-0.328125 -1.609375 -1.359375 -2.390625q-1.03125 -0.796875 -3.25 -0.796875q-2.390625 0 -3.484375 1.109375q-1.078125 1.09375 -1.34375 3.0q-0.25 1.890625 -0.25 4.28125l0 14.40625q0 2.78125 0.40625 4.656246q0.40625 1.875 1.546875 2.78125q1.15625 0.90625 3.265625 0.90625q2.125 0 3.265625 -1.0q1.15625 -1.015625 1.578125 -2.984375q0.4375 -1.9687462 0.4375 -4.890621l0 -2.6875l-4.9375 0l0 -3.84375l9.84375 0l0 19.249996l-3.40625 0l-0.53125 -4.46875q-0.765625 2.171875 -2.40625 3.5625q-1.625 1.390625 -4.515625 1.390625z" fill-rule="nonzero"/></g></svg>