<?xml version="1.0" encoding="UTF-8"?>
<svg width="289px" height="288px" viewBox="0 0 289 288" version="1.1" xmlns="http://www.w3.org/2000/svg" xmlns:xlink="http://www.w3.org/1999/xlink">
    <title>Fill 4</title>
    <g id="Page-1" stroke="none" stroke-width="1" fill="none" fill-rule="evenodd">
        <g id="free-gear-wheels-vector" transform="translate(-340.500000, 0.026000)" fill="#FFFFFF">
            <path d="M571.639,186.492 L514.575,153.545 C515.47,150.646 515.957,147.566 515.957,144.378 C515.957,141.287 515.489,138.307 514.645,135.486 L571.766,102.51 C577.894,115.18 581.335,129.384 581.335,144.378 C581.335,159.47 577.844,173.759 571.639,186.492 Z M491.6,240.583 L491.6,174.711 C497.544,173.393 502.854,170.378 506.986,166.189 L564.174,199.207 C547.946,222.606 521.65,238.498 491.6,240.583 Z M462.31,165.703 C466.21,169.826 471.216,172.872 476.857,174.38 L476.857,240.485 C447.115,238.024 421.158,222.037 405.19,198.681 L462.31,165.703 Z M388.404,144.378 C388.404,129.613 391.749,115.617 397.704,103.094 L454.927,136.132 C454.202,138.763 453.782,141.52 453.782,144.378 C453.782,147.335 454.224,150.188 454.998,152.9 L397.818,185.914 C391.789,173.326 388.404,159.241 388.404,144.378 Z M476.857,48.272 L476.857,114.376 C471.123,115.91 466.048,119.035 462.121,123.262 L405.031,90.298 C420.984,66.82 447.019,50.739 476.857,48.272 Z M502.497,144.378 C502.497,154.097 494.589,162.005 484.87,162.005 C475.15,162.005 467.243,154.097 467.243,144.378 C467.243,134.659 475.15,126.751 484.87,126.751 C494.589,126.751 502.497,134.659 502.497,144.378 Z M491.6,114.046 L491.6,48.174 C521.747,50.264 548.12,66.249 564.335,89.775 L507.176,122.776 C503.017,118.481 497.639,115.387 491.6,114.046 Z M628.926,159.921 L628.926,128.193 L609.102,128.193 C607.638,116.842 604.688,105.956 600.395,95.767 L617.579,85.846 L601.715,58.37 L584.448,68.34 C577.634,59.429 569.656,51.462 560.734,44.662 L570.716,27.371 L543.239,11.507 L533.272,28.77 C523.095,24.503 512.227,21.572 500.893,20.124 L500.893,0.162 L469.165,0.162 L469.165,20.084 C457.812,21.504 446.927,24.419 436.728,28.666 L426.82,11.507 L399.342,27.371 L409.226,44.489 C400.256,51.293 392.24,59.281 385.391,68.211 L368.345,58.37 L352.479,85.849 L369.403,95.618 C365.076,105.849 362.108,116.787 360.636,128.193 L341.134,128.193 L341.134,159.921 L360.555,159.921 C361.972,171.368 364.906,182.34 369.196,192.616 L352.479,202.265 L368.344,229.744 L385.044,220.103 C391.902,229.129 399.957,237.193 408.972,244.066 L399.342,260.743 L426.82,276.606 L436.426,259.969 C446.71,264.287 457.702,267.238 469.165,268.673 L469.165,287.952 L500.893,287.952 L500.893,268.632 C512.337,267.17 523.31,264.201 533.574,259.868 L543.238,276.606 L570.716,260.743 L560.988,243.894 C569.955,237.024 577.972,228.979 584.795,219.975 L601.715,229.744 L617.579,202.265 L600.602,192.465 C604.858,182.233 607.774,171.312 609.184,159.921 L628.926,159.921 L628.926,159.921 Z" id="Fill-4"></path>
        </g>
    </g>
</svg>