<?xml version="1.0" encoding="UTF-8"?>
<svg width="21px" height="21px" viewBox="0 0 21 21" version="1.1" xmlns="http://www.w3.org/2000/svg" xmlns:xlink="http://www.w3.org/1999/xlink">
    <title>icon-help</title>
    <g id="Page-1" stroke="none" stroke-width="1" fill="none" fill-rule="evenodd">
        <g id="icon-help" transform="translate(0.500000, 0.500000)" fill-rule="nonzero">
            <path d="M10,20 C4.4771525,20 1.77635684e-15,15.5228475 1.77635684e-15,10 C1.77635684e-15,4.4771525 4.4771525,1.77635684e-15 10,1.77635684e-15 C15.5228475,1.77635684e-15 20,4.4771525 20,10 C20,15.5228475 15.5228475,20 10,20 Z" id="Path" fill="#3EBD93"></path>
            <path d="M10,17.5 C9.17157288,17.5 8.5,16.8284271 8.5,16 C8.5,15.1715729 9.17157288,14.5 10,14.5 C10.8284271,14.5 11.5,15.1715729 11.5,16 C11.5,16.8284271 10.8284271,17.5 10,17.5 Z M11,12 C11,12.5522847 10.5522847,13 10,13 C9.44771525,13 9,12.5522847 9,12 L9,10.59 C8.99735433,10.2098431 9.2104962,9.86106553 9.55,9.69 L12,8.5 C12.64,8.08 13,7.53 13,7 C13,5.97 11.7,5 10,5 C8.65,5 7.51,5.62 7.13,6.43 C6.87063094,6.88596678 6.30301127,7.06401071 5.82968604,6.83786643 C5.3563608,6.61172215 5.13823531,6.05826665 5.33,5.57 C6.05,4.01 7.92,3 10,3 C12.7,3 15,4.72 15,7 C15,8.3 14.24,9.46 12.95,10.24 L11,11.2 L11,12 Z" id="Shape" fill="#FFFFFF"></path>
        </g>
    </g>
</svg>